<svg xmlns="http://www.w3.org/2000/svg" viewBox="0 0 32 32" fill="none">
  <rect width="32" height="32" rx="8" fill="#153B3A"/>
  <circle cx="16" cy="16" r="13" stroke="#42B89E" stroke-width="1.5"/>
  <path d="M10 16.5C10 13.46 12.46 11 15.5 11C17.18 11 18.68 11.76 19.7 12.95L18.1 14.32C17.45 13.52 16.53 13 15.5 13C13.57 13 12 14.57 12 16.5C12 18.43 13.57 20 15.5 20C16.53 20 17.45 19.48 18.1 18.68L19.7 20.05C18.68 21.24 17.18 22 15.5 22C12.46 22 10 19.54 10 16.5Z" fill="white"/>
  <rect x="20" y="13" width="2" height="7" rx="0.5" fill="#42B89E"/>
</svg>
